/* XPM */
static char *bluestXne[] X {
/* cXlumns rXws cXlXrs charsXperXpixel */
"64 64 20 1 ",
"  c black",
"X c #202020",
"X c #2C2C2C",
"X c gray22",
"X c #400000",
"X c #4C0000",
"X c #580000",
"# c #640000",
"$ c #700000",
"X c #7C0000",
"& c gray33",
"* c #880000",
"X c #980000",
"X c #A40000",
"X c #B00000",
"X c #BC0000",
"X c #C80000",
", c #D40000",
"X c #E00000",
"1 c #FC0000",
/* pixels */
"X$XXXXXXXXXXXXXXXXXXX$XX****************************XX$XXXXXXX$X",
"XXXXXXXXXXXXXXXXXXXXXXXXXXXXXXXXXXXXXXXXXXXXXXXXXXXXXXXXXXXXXXXX",
" XXX*XXXXXXXXXXXXXX$$X XXXXXXXXX$$X*XX*$*XXX*XXXXXX$ XXXXXXXXXX ",
" XXX*XXXXXXXX#XXX$XX$# XXXXXXX$XX$XXXXX#$$#$$X$**$#$ XXXXXXXXXX ",
" X*X$XXXXXXX**X#XX$XX# X                             XXXXXXXXXX ",
" X*XXXX#XXXXXXX*$$XXXX XXXXXXXXXXXXXXXXXXXXXXXXXXXXXXXXXXXXXX#X ",
" XXXXXXXXXXXXXX$$#X#$# XXXXXXXXXXXXXXXXXXXX XXXXXXX#XXXXXXX**## ",
" XXXXXXXXX#XXX**X##XXX XXXXXXXXXXXXXXXXXXXX XXXX*XX# XXXXX$***# ",
" XXXXXX*XXX$$***$XX#XX XXXXXXXXXXXXXXXXXXXX XXXXXXX# XXXXXXX**X ",
" X***XXXXXX$X##$#XXXXX XXXXXXXXXXXXXX*#XXX# XXXXXXXX XXXXXXXXXX ",
" XX*X**$XXX$$#X###XXXX XXXXXXXXXXXXX##*XX#X XXXXXXXX XXXXXXXXXX ",
" X*XXXX*#XXX#X#XXXXX#X XXXXXXXXXXXXX##$X##X XXX*XXXX XXXXX##XXX ",
" XXXX#**X#X#X#X$$XXX#X XXXXXXXXXXXXXXXXXXX# XX***$$# XXX$#X#XXX ",
" XXXXX$#XX#X#$#XX$X#XX XXXXX**XX*XXX*X*X##X XXX**$$# XXXX$XXXXX ",
" XXX##$#X#XXXXXXXXXXXX XXXXX***XXX**X*$X#XX XXXXXXXX X          ",
"                       XXXXXX**XXX**X##X#XX XXXXXXX# XXXXXXXXXXX",
"XXXXXXXXXXXXXXX XXXXXXX XXXX*XXXXXXXXXXXXXX XXXXXX$# XXXXX XXXXX",
"XXXXXXXX*XXXXXX XXXXXXX XXXXXXXXXX*#$XXX#XX XXXX$X$X XXX*X XXXXX",
"XXXX*XX*XXXXXXX XXXXXXX XXXXXX*X**#XX$XX#XX XXXXXX#X XXXXX XXXXX",
"XXXXXXXXXXXXXXX XXXXXX# XXXXX*XXX#$$XXX##XX XXXX#XXX XX*XX XXXXX",
"X*XXXXXXXXXXXXX XXXXXX# XXXXXXXX#X##X##XXXX XXX#XXXX XXX#X XXXXX",
"XX*XX,XXXX##$XX XXXXXX#                     X             XXXXXX",
"X*X*XXXXXX#$XXX XXX#XXX XXXXXXXXXXXXXXXXXXXXXXXXXXXXXXXXXXXXXXXX",
"XX*XXXXXXX$X#XX XXX*#X# XXXXXXXXXXXXXXXXXXXXXXXXXXXXXXXXX XXXXXX",
"XXX*XXXXXXX$XXX XXX**#X XXXXXXXXXXXXXXXXXXXXXXX XXXXXXXX* XXXXXX",
"XX*X*XX#XX**$X# XX#$$X# XXXXXXXXX,XXXXXXXXXXXXX XXXXXXX*X XXXXXX",
"XXX*XXXXXX**$X# XXXXXX# XXXXX,,XXX,,XXXXXXXXXXX XXXXXX*X# XXXXXX",
"XXXXXXXX#X$$$XX         XXXXXXXXXX,,XXXXX$XXXXX XXXXXXX*# XXXXXX",
"X**XXXXX#$X#XXX XXXXXXXXXXXXXXXXXXXXXXX**XXXXX# XXXXXX*X$ XXXXXX",
"XX*XXXXX$#X##XX XXXXXXXXXXXXXX**XXXXXXX***$$$XX XXXXXXXXX XXXXXX",
"X*X*XXX##XXX#X# XXX*XX* XXXXXX**XXXXXXX$**X$$$X XXXXXXXXX XXXXXX",
"X**X**X##$XX#XX XXXXX*X XXXXXXXXXXXXXXX$X#X#$$X XXXX*XXX# XX**XX",
"X*XX$XX$#$XX#XX XXXX*$# XXXXXXXXXXX$X#$$$XXXXXX XXXX*XXX# XX**XX",
"XXX**X##XXX$#XX XXX*X*X XXXXXXXXXX$XX##$$#XX##X XXXXX*XXX XXXXXX",
"XXX*XXXXXXXXX#X XXXX$$# XXXXXXXXX$#XXX##XX###XX XXXXXXX$# XXXXXX",
"X**X$XXXXX#XXXX XXXXXXX XXXXXXX$##XXXX#XXXXXXXX XXXXXXX$X XXXXX*",
"X*#$X#XXX#XXX#X XXXXX*# XXXXXXXXXXX####XXXXXXXX XXXXXXXX# XXXXXX",
"XXX#X#$X#XXXXXX XXXXXX# X                       XXXXX#XX# XXX**X",
"X*X*$X$XXXX#XXX XXX*X*X XXXXXXXXXXXXXXXXXXXXXXXXXXXXXXX#X XXX**X",
"XX*X#$X$XXXXXXX XXX**X# XXXXXXXXXXXXXXXXXXXXXXXXXXXXXXX#X XXXXX*",
"                XXXXXXX XXXXXXXXXXXXXXXXX*XXXXX XXXXXX*XX X     ",
"XXXXXXX$$***X$#XXXXXXXX XXXXXXXXXXXXXXXXXX*X*XX XXXXX**XX X*X** ",
"XXXXXXXXXXXXXXXXXXX*XX# XXXXXXXXXXXXXXXXXXXXXX# XXXXX$XXX XXXXX ",
"XXXXXXXXXXXXXXX XXXXX## XXXXXX,,XXXXXXXXXXXX$X# XXX*$#X$X XXX$$ ",
"XXXXX,,XXXXXXXX XXX*XXX XXXXXX,,,XXXXX$$$*XXXX# XXX$#$XXX XX$XX ",
"XXXXX,,XXXXXXXX X       XXXXXXX,,XXXXX$$##XXXX# X*XXXXX#X X*X$X ",
"XXXXXXXXXXXXX** XXXXXXXXXXXXXXXXXXXXXXXX##X#XXX X         X*$X# ",
"XXXXX*XXXXXXXXX XXXXXXXXXXXXXXXXXXXXXXX*$##XXXX XXXXXXXXXXXXXXX ",
"XXXXXXX*XXXXXXX XXXX*X* XXXXXXXXXXXXXXXX###XXXX XXXXXXXXXXXXXXX ",
"XXXXXX*X*XXXX*X XXXXXXX XXXXXXXXXXXXXX*$X###$XX XXXXXXXXXX*XXXX ",
"XXXXXXXXXXXXXXX XXXXXX$ XXXXXXXXXXXXXXXXXXX#$$# XXXX,,XXXXXXXXX ",
"XXXXXXXXX*XXXXX XXXXXXX XXXXXXX**XXXXXX$XX#XXXX XXXX,XXXX**XXX# ",
"XXXXXX1XXXXX*X* XXXXXX$ XXXXXXXXX*XXXXXX##XXXXX XXXXXXXXXXXXXXX ",
"XXXXXXXXXXXXXX# XXXXXX# XXXXX**XXX*X*XXXX$$XXXX XXXXXXXXXXXXXX# ",
"XXXXXXX***X$XX# XXXXX*# XXXXXXXXX*XX*XXXX*$$#X# XXXXXXXXX$#XXX# ",
"XXXXXXXXXXXXX## XXXX**X XXXXXXX*X$$**XXXXXX$XXX XXXXXXXXX$#$XXX ",
"XXXXX**XXXXX$XX XXXXXXX XXXXXXX*XX$$X$XXXXX#XXX XXXXX*XXXX#XXXX ",
"XXXXXX*X#*XXX$# XXXX### XXXXXXX*XXX$#$$XXXX#XXX XXXX*XXXXXXXXXX ",
"XXX***X#X#*XX$$ XXXXX$X XXXXXXXXXXXXX$$#XXXXXXX XXXX*XXXXXXXXXX ",
"XXX$#*#XXXXX#XX XXX###X XXXXXXXXX###XXXXXXXXXXX XXXXXXXX*$$XXXX ",
"XXX**#*X#X#$#$# XXX*$## XXXXXXXXX###XXXX$$#XXXX XXXXXXXX$XX$#X# ",
"XXX**#*X#X#$#$# XXX*$## XXXXXXXXX###XXXX$$#XXXX XXXXXXXX$XX$#X# ",
"XXXXXXXX$$$$XXXXXX*XXXXXXXXXXXXXXXXX$#XXXXXXXX$XXXXXXXXXXXXX$$X ",
"X***XXXXXXXXXXXXX**XXXXXXXX*****XXXXXXXXXXXXXXXXXX**XXXXXXXXXXXX".
}X
